<mxfile host="app.diagrams.net" modified="2021-06-04T08:52:55.423Z" agent="5.0 (Windows NT 10.0; Win64; x64) AppleWebKit/537.36 (KHTML, like Gecko) Chrome/90.0.4430.212 Safari/537.36" etag="YNfGHcRDn6_hDjS62iKk" version="14.7.0" type="github">
  <diagram id="C5RBs43oDa-KdzZeNtuy" name="Page-1">
    <mxGraphModel dx="1449" dy="663" grid="1" gridSize="10" guides="1" tooltips="1" connect="1" arrows="1" fold="1" page="1" pageScale="1" pageWidth="827" pageHeight="1169" math="0" shadow="0">
      <root>
        <mxCell id="WIyWlLk6GJQsqaUBKTNV-0" />
        <mxCell id="WIyWlLk6GJQsqaUBKTNV-1" parent="WIyWlLk6GJQsqaUBKTNV-0" />
        <mxCell id="zkfFHV4jXpPFQw0GAbJ--0" value="interface" style="swimlane;fontStyle=2;align=center;verticalAlign=top;childLayout=stackLayout;horizontal=1;startSize=26;horizontalStack=0;resizeParent=1;resizeLast=0;collapsible=1;marginBottom=0;rounded=0;shadow=0;strokeWidth=1;" parent="WIyWlLk6GJQsqaUBKTNV-1" vertex="1">
          <mxGeometry x="20" y="20" width="160" height="80" as="geometry">
            <mxRectangle x="230" y="140" width="160" height="26" as="alternateBounds" />
          </mxGeometry>
        </mxCell>
        <mxCell id="zkfFHV4jXpPFQw0GAbJ--1" value="name: string" style="text;align=left;verticalAlign=top;spacingLeft=4;spacingRight=4;overflow=hidden;rotatable=0;points=[[0,0.5],[1,0.5]];portConstraint=eastwest;" parent="zkfFHV4jXpPFQw0GAbJ--0" vertex="1">
          <mxGeometry y="26" width="160" height="26" as="geometry" />
        </mxCell>
        <mxCell id="zkfFHV4jXpPFQw0GAbJ--2" value="amount: number" style="text;align=left;verticalAlign=top;spacingLeft=4;spacingRight=4;overflow=hidden;rotatable=0;points=[[0,0.5],[1,0.5]];portConstraint=eastwest;rounded=0;shadow=0;html=0;" parent="zkfFHV4jXpPFQw0GAbJ--0" vertex="1">
          <mxGeometry y="52" width="160" height="26" as="geometry" />
        </mxCell>
        <mxCell id="zkfFHV4jXpPFQw0GAbJ--17" value="animal" style="swimlane;fontStyle=0;align=center;verticalAlign=top;childLayout=stackLayout;horizontal=1;startSize=26;horizontalStack=0;resizeParent=1;resizeLast=0;collapsible=1;marginBottom=0;rounded=0;shadow=0;strokeWidth=1;" parent="WIyWlLk6GJQsqaUBKTNV-1" vertex="1">
          <mxGeometry x="210" y="20" width="310" height="216" as="geometry">
            <mxRectangle x="550" y="140" width="160" height="26" as="alternateBounds" />
          </mxGeometry>
        </mxCell>
        <mxCell id="zkfFHV4jXpPFQw0GAbJ--18" value="name: string" style="text;align=left;verticalAlign=top;spacingLeft=4;spacingRight=4;overflow=hidden;rotatable=0;points=[[0,0.5],[1,0.5]];portConstraint=eastwest;" parent="zkfFHV4jXpPFQw0GAbJ--17" vertex="1">
          <mxGeometry y="26" width="310" height="26" as="geometry" />
        </mxCell>
        <mxCell id="zkfFHV4jXpPFQw0GAbJ--19" value="food: string" style="text;align=left;verticalAlign=top;spacingLeft=4;spacingRight=4;overflow=hidden;rotatable=0;points=[[0,0.5],[1,0.5]];portConstraint=eastwest;rounded=0;shadow=0;html=0;" parent="zkfFHV4jXpPFQw0GAbJ--17" vertex="1">
          <mxGeometry y="52" width="310" height="26" as="geometry" />
        </mxCell>
        <mxCell id="zkfFHV4jXpPFQw0GAbJ--20" value="sound: string" style="text;align=left;verticalAlign=top;spacingLeft=4;spacingRight=4;overflow=hidden;rotatable=0;points=[[0,0.5],[1,0.5]];portConstraint=eastwest;rounded=0;shadow=0;html=0;" parent="zkfFHV4jXpPFQw0GAbJ--17" vertex="1">
          <mxGeometry y="78" width="310" height="26" as="geometry" />
        </mxCell>
        <mxCell id="zkfFHV4jXpPFQw0GAbJ--23" value="" style="line;html=1;strokeWidth=1;align=left;verticalAlign=middle;spacingTop=-1;spacingLeft=3;spacingRight=3;rotatable=0;labelPosition=right;points=[];portConstraint=eastwest;" parent="zkfFHV4jXpPFQw0GAbJ--17" vertex="1">
          <mxGeometry y="104" width="310" height="8" as="geometry" />
        </mxCell>
        <mxCell id="zkfFHV4jXpPFQw0GAbJ--24" value="constructor(_name: string, _food: string, _sound: string)" style="text;align=left;verticalAlign=top;spacingLeft=4;spacingRight=4;overflow=hidden;rotatable=0;points=[[0,0.5],[1,0.5]];portConstraint=eastwest;" parent="zkfFHV4jXpPFQw0GAbJ--17" vertex="1">
          <mxGeometry y="112" width="310" height="26" as="geometry" />
        </mxCell>
        <mxCell id="zkfFHV4jXpPFQw0GAbJ--25" value="sing(_foodValue: number)" style="text;align=left;verticalAlign=top;spacingLeft=4;spacingRight=4;overflow=hidden;rotatable=0;points=[[0,0.5],[1,0.5]];portConstraint=eastwest;" parent="zkfFHV4jXpPFQw0GAbJ--17" vertex="1">
          <mxGeometry y="138" width="310" height="26" as="geometry" />
        </mxCell>
        <mxCell id="T4zsYafHRAHOymSspzd6-0" value="eat(_foodValue: number, _foodConsume: number)" style="text;align=left;verticalAlign=top;spacingLeft=4;spacingRight=4;overflow=hidden;rotatable=0;points=[[0,0.5],[1,0.5]];portConstraint=eastwest;" parent="zkfFHV4jXpPFQw0GAbJ--17" vertex="1">
          <mxGeometry y="164" width="310" height="26" as="geometry" />
        </mxCell>
        <mxCell id="T4zsYafHRAHOymSspzd6-4" value="" style="edgeStyle=orthogonalEdgeStyle;rounded=0;orthogonalLoop=1;jettySize=auto;html=1;" parent="WIyWlLk6GJQsqaUBKTNV-1" source="T4zsYafHRAHOymSspzd6-2" target="T4zsYafHRAHOymSspzd6-3" edge="1">
          <mxGeometry relative="1" as="geometry" />
        </mxCell>
        <mxCell id="T4zsYafHRAHOymSspzd6-2" value="" style="ellipse;whiteSpace=wrap;html=1;aspect=fixed;fillColor=#000000;" parent="WIyWlLk6GJQsqaUBKTNV-1" vertex="1">
          <mxGeometry x="137" y="910" width="24" height="24" as="geometry" />
        </mxCell>
        <mxCell id="T4zsYafHRAHOymSspzd6-6" style="edgeStyle=orthogonalEdgeStyle;rounded=0;orthogonalLoop=1;jettySize=auto;html=1;entryX=0.5;entryY=0;entryDx=0;entryDy=0;" parent="WIyWlLk6GJQsqaUBKTNV-1" source="T4zsYafHRAHOymSspzd6-3" target="T4zsYafHRAHOymSspzd6-5" edge="1">
          <mxGeometry relative="1" as="geometry" />
        </mxCell>
        <mxCell id="T4zsYafHRAHOymSspzd6-3" value="let dom: HTMLElement;&lt;br&gt;let amountFood: Stock[];&lt;br&gt;let counter: number = 0;" style="whiteSpace=wrap;html=1;fillColor=#FFFFFF;" parent="WIyWlLk6GJQsqaUBKTNV-1" vertex="1">
          <mxGeometry x="30" y="960" width="238" height="54" as="geometry" />
        </mxCell>
        <mxCell id="T4zsYafHRAHOymSspzd6-8" style="edgeStyle=orthogonalEdgeStyle;rounded=0;orthogonalLoop=1;jettySize=auto;html=1;" parent="WIyWlLk6GJQsqaUBKTNV-1" source="T4zsYafHRAHOymSspzd6-5" target="T4zsYafHRAHOymSspzd6-7" edge="1">
          <mxGeometry relative="1" as="geometry" />
        </mxCell>
        <mxCell id="T4zsYafHRAHOymSspzd6-5" value="install load listener" style="rounded=1;whiteSpace=wrap;html=1;fillColor=#FFFFFF;" parent="WIyWlLk6GJQsqaUBKTNV-1" vertex="1">
          <mxGeometry x="89" y="1044" width="120" height="30" as="geometry" />
        </mxCell>
        <mxCell id="T4zsYafHRAHOymSspzd6-39" style="edgeStyle=orthogonalEdgeStyle;rounded=0;orthogonalLoop=1;jettySize=auto;html=1;entryX=0.5;entryY=0;entryDx=0;entryDy=0;" parent="WIyWlLk6GJQsqaUBKTNV-1" source="T4zsYafHRAHOymSspzd6-7" target="T4zsYafHRAHOymSspzd6-38" edge="1">
          <mxGeometry relative="1" as="geometry" />
        </mxCell>
        <mxCell id="T4zsYafHRAHOymSspzd6-7" value="class Animal" style="rounded=0;whiteSpace=wrap;html=1;fillColor=#FFFFFF;" parent="WIyWlLk6GJQsqaUBKTNV-1" vertex="1">
          <mxGeometry x="89" y="1099" width="120" height="30" as="geometry" />
        </mxCell>
        <mxCell id="T4zsYafHRAHOymSspzd6-19" style="edgeStyle=orthogonalEdgeStyle;rounded=0;orthogonalLoop=1;jettySize=auto;html=1;entryX=0.5;entryY=0;entryDx=0;entryDy=0;" parent="WIyWlLk6GJQsqaUBKTNV-1" source="T4zsYafHRAHOymSspzd6-9" target="T4zsYafHRAHOymSspzd6-12" edge="1">
          <mxGeometry relative="1" as="geometry" />
        </mxCell>
        <mxCell id="T4zsYafHRAHOymSspzd6-9" value="load" style="shape=step;perimeter=stepPerimeter;whiteSpace=wrap;html=1;fixedSize=1;fillColor=#FFFFFF;" parent="WIyWlLk6GJQsqaUBKTNV-1" vertex="1">
          <mxGeometry x="295" y="910" width="120" height="30" as="geometry" />
        </mxCell>
        <mxCell id="T4zsYafHRAHOymSspzd6-36" style="edgeStyle=orthogonalEdgeStyle;rounded=0;orthogonalLoop=1;jettySize=auto;html=1;" parent="WIyWlLk6GJQsqaUBKTNV-1" source="T4zsYafHRAHOymSspzd6-10" target="T4zsYafHRAHOymSspzd6-23" edge="1">
          <mxGeometry relative="1" as="geometry" />
        </mxCell>
        <mxCell id="T4zsYafHRAHOymSspzd6-10" value="click 1" style="shape=step;perimeter=stepPerimeter;whiteSpace=wrap;html=1;fixedSize=1;fillColor=#FFFFFF;" parent="WIyWlLk6GJQsqaUBKTNV-1" vertex="1">
          <mxGeometry x="440" y="910" width="120" height="30" as="geometry" />
        </mxCell>
        <mxCell id="T4zsYafHRAHOymSspzd6-37" style="edgeStyle=orthogonalEdgeStyle;rounded=0;orthogonalLoop=1;jettySize=auto;html=1;entryX=0.5;entryY=0;entryDx=0;entryDy=0;" parent="WIyWlLk6GJQsqaUBKTNV-1" source="T4zsYafHRAHOymSspzd6-11" target="T4zsYafHRAHOymSspzd6-30" edge="1">
          <mxGeometry relative="1" as="geometry" />
        </mxCell>
        <mxCell id="T4zsYafHRAHOymSspzd6-11" value="click 2" style="shape=step;perimeter=stepPerimeter;whiteSpace=wrap;html=1;fixedSize=1;fillColor=#FFFFFF;" parent="WIyWlLk6GJQsqaUBKTNV-1" vertex="1">
          <mxGeometry x="570" y="910" width="120" height="30" as="geometry" />
        </mxCell>
        <mxCell id="T4zsYafHRAHOymSspzd6-21" style="edgeStyle=orthogonalEdgeStyle;rounded=0;orthogonalLoop=1;jettySize=auto;html=1;entryX=0.5;entryY=0;entryDx=0;entryDy=0;" parent="WIyWlLk6GJQsqaUBKTNV-1" source="T4zsYafHRAHOymSspzd6-12" target="T4zsYafHRAHOymSspzd6-20" edge="1">
          <mxGeometry relative="1" as="geometry" />
        </mxCell>
        <mxCell id="T4zsYafHRAHOymSspzd6-12" value="handleLoad&lt;br&gt;" style="rounded=1;whiteSpace=wrap;html=1;fillColor=#FFFFFF;" parent="WIyWlLk6GJQsqaUBKTNV-1" vertex="1">
          <mxGeometry x="295" y="980" width="120" height="60" as="geometry" />
        </mxCell>
        <mxCell id="T4zsYafHRAHOymSspzd6-13" value="" style="line;strokeWidth=1;fillColor=none;align=left;verticalAlign=middle;spacingTop=-1;spacingLeft=3;spacingRight=3;rotatable=0;labelPosition=right;points=[];portConstraint=eastwest;flipH=1;" parent="WIyWlLk6GJQsqaUBKTNV-1" vertex="1">
          <mxGeometry x="335" y="1020" width="40" height="8" as="geometry" />
        </mxCell>
        <mxCell id="T4zsYafHRAHOymSspzd6-16" value="" style="line;strokeWidth=1;fillColor=none;align=left;verticalAlign=middle;spacingTop=-1;spacingLeft=3;spacingRight=3;rotatable=0;labelPosition=right;points=[];portConstraint=eastwest;direction=south;" parent="WIyWlLk6GJQsqaUBKTNV-1" vertex="1">
          <mxGeometry x="347.5" y="1018" width="15" height="10" as="geometry" />
        </mxCell>
        <mxCell id="T4zsYafHRAHOymSspzd6-17" value="" style="line;strokeWidth=1;fillColor=none;align=left;verticalAlign=middle;spacingTop=-1;spacingLeft=3;spacingRight=3;rotatable=0;labelPosition=right;points=[];portConstraint=eastwest;direction=south;" parent="WIyWlLk6GJQsqaUBKTNV-1" vertex="1">
          <mxGeometry x="335" y="1020" width="10" height="20" as="geometry" />
        </mxCell>
        <mxCell id="T4zsYafHRAHOymSspzd6-18" value="" style="line;strokeWidth=1;fillColor=none;align=left;verticalAlign=middle;spacingTop=-1;spacingLeft=3;spacingRight=3;rotatable=0;labelPosition=right;points=[];portConstraint=eastwest;direction=south;" parent="WIyWlLk6GJQsqaUBKTNV-1" vertex="1">
          <mxGeometry x="365" y="1020" width="10" height="20" as="geometry" />
        </mxCell>
        <mxCell id="T4zsYafHRAHOymSspzd6-20" value="" style="ellipse;html=1;shape=endState;fillColor=#000000;strokeColor=#ff0000;" parent="WIyWlLk6GJQsqaUBKTNV-1" vertex="1">
          <mxGeometry x="340" y="1070" width="30" height="30" as="geometry" />
        </mxCell>
        <mxCell id="T4zsYafHRAHOymSspzd6-22" style="edgeStyle=orthogonalEdgeStyle;rounded=0;orthogonalLoop=1;jettySize=auto;html=1;entryX=0.5;entryY=0;entryDx=0;entryDy=0;" parent="WIyWlLk6GJQsqaUBKTNV-1" source="T4zsYafHRAHOymSspzd6-23" target="T4zsYafHRAHOymSspzd6-28" edge="1">
          <mxGeometry relative="1" as="geometry" />
        </mxCell>
        <mxCell id="T4zsYafHRAHOymSspzd6-23" value="handleLoad&lt;br&gt;" style="rounded=1;whiteSpace=wrap;html=1;fillColor=#FFFFFF;" parent="WIyWlLk6GJQsqaUBKTNV-1" vertex="1">
          <mxGeometry x="440" y="980" width="120" height="60" as="geometry" />
        </mxCell>
        <mxCell id="T4zsYafHRAHOymSspzd6-24" value="" style="line;strokeWidth=1;fillColor=none;align=left;verticalAlign=middle;spacingTop=-1;spacingLeft=3;spacingRight=3;rotatable=0;labelPosition=right;points=[];portConstraint=eastwest;flipH=1;" parent="WIyWlLk6GJQsqaUBKTNV-1" vertex="1">
          <mxGeometry x="480" y="1020" width="40" height="8" as="geometry" />
        </mxCell>
        <mxCell id="T4zsYafHRAHOymSspzd6-25" value="" style="line;strokeWidth=1;fillColor=none;align=left;verticalAlign=middle;spacingTop=-1;spacingLeft=3;spacingRight=3;rotatable=0;labelPosition=right;points=[];portConstraint=eastwest;direction=south;" parent="WIyWlLk6GJQsqaUBKTNV-1" vertex="1">
          <mxGeometry x="492.5" y="1018" width="15" height="10" as="geometry" />
        </mxCell>
        <mxCell id="T4zsYafHRAHOymSspzd6-26" value="" style="line;strokeWidth=1;fillColor=none;align=left;verticalAlign=middle;spacingTop=-1;spacingLeft=3;spacingRight=3;rotatable=0;labelPosition=right;points=[];portConstraint=eastwest;direction=south;" parent="WIyWlLk6GJQsqaUBKTNV-1" vertex="1">
          <mxGeometry x="480" y="1020" width="10" height="20" as="geometry" />
        </mxCell>
        <mxCell id="T4zsYafHRAHOymSspzd6-27" value="" style="line;strokeWidth=1;fillColor=none;align=left;verticalAlign=middle;spacingTop=-1;spacingLeft=3;spacingRight=3;rotatable=0;labelPosition=right;points=[];portConstraint=eastwest;direction=south;" parent="WIyWlLk6GJQsqaUBKTNV-1" vertex="1">
          <mxGeometry x="510" y="1020" width="10" height="20" as="geometry" />
        </mxCell>
        <mxCell id="T4zsYafHRAHOymSspzd6-28" value="" style="ellipse;html=1;shape=endState;fillColor=#000000;strokeColor=#ff0000;" parent="WIyWlLk6GJQsqaUBKTNV-1" vertex="1">
          <mxGeometry x="485" y="1070" width="30" height="30" as="geometry" />
        </mxCell>
        <mxCell id="T4zsYafHRAHOymSspzd6-29" style="edgeStyle=orthogonalEdgeStyle;rounded=0;orthogonalLoop=1;jettySize=auto;html=1;entryX=0.5;entryY=0;entryDx=0;entryDy=0;" parent="WIyWlLk6GJQsqaUBKTNV-1" source="T4zsYafHRAHOymSspzd6-30" target="T4zsYafHRAHOymSspzd6-35" edge="1">
          <mxGeometry relative="1" as="geometry" />
        </mxCell>
        <mxCell id="T4zsYafHRAHOymSspzd6-30" value="handleLoad&lt;br&gt;" style="rounded=1;whiteSpace=wrap;html=1;fillColor=#FFFFFF;" parent="WIyWlLk6GJQsqaUBKTNV-1" vertex="1">
          <mxGeometry x="570" y="980" width="120" height="60" as="geometry" />
        </mxCell>
        <mxCell id="T4zsYafHRAHOymSspzd6-31" value="" style="line;strokeWidth=1;fillColor=none;align=left;verticalAlign=middle;spacingTop=-1;spacingLeft=3;spacingRight=3;rotatable=0;labelPosition=right;points=[];portConstraint=eastwest;flipH=1;" parent="WIyWlLk6GJQsqaUBKTNV-1" vertex="1">
          <mxGeometry x="610" y="1020" width="40" height="8" as="geometry" />
        </mxCell>
        <mxCell id="T4zsYafHRAHOymSspzd6-32" value="" style="line;strokeWidth=1;fillColor=none;align=left;verticalAlign=middle;spacingTop=-1;spacingLeft=3;spacingRight=3;rotatable=0;labelPosition=right;points=[];portConstraint=eastwest;direction=south;" parent="WIyWlLk6GJQsqaUBKTNV-1" vertex="1">
          <mxGeometry x="622.5" y="1018" width="15" height="10" as="geometry" />
        </mxCell>
        <mxCell id="T4zsYafHRAHOymSspzd6-33" value="" style="line;strokeWidth=1;fillColor=none;align=left;verticalAlign=middle;spacingTop=-1;spacingLeft=3;spacingRight=3;rotatable=0;labelPosition=right;points=[];portConstraint=eastwest;direction=south;" parent="WIyWlLk6GJQsqaUBKTNV-1" vertex="1">
          <mxGeometry x="610" y="1020" width="10" height="20" as="geometry" />
        </mxCell>
        <mxCell id="T4zsYafHRAHOymSspzd6-34" value="" style="line;strokeWidth=1;fillColor=none;align=left;verticalAlign=middle;spacingTop=-1;spacingLeft=3;spacingRight=3;rotatable=0;labelPosition=right;points=[];portConstraint=eastwest;direction=south;" parent="WIyWlLk6GJQsqaUBKTNV-1" vertex="1">
          <mxGeometry x="640" y="1020" width="10" height="20" as="geometry" />
        </mxCell>
        <mxCell id="T4zsYafHRAHOymSspzd6-35" value="" style="ellipse;html=1;shape=endState;fillColor=#000000;strokeColor=#ff0000;" parent="WIyWlLk6GJQsqaUBKTNV-1" vertex="1">
          <mxGeometry x="615" y="1070" width="30" height="30" as="geometry" />
        </mxCell>
        <mxCell id="T4zsYafHRAHOymSspzd6-38" value="" style="ellipse;html=1;shape=endState;fillColor=#000000;strokeColor=#ff0000;" parent="WIyWlLk6GJQsqaUBKTNV-1" vertex="1">
          <mxGeometry x="134" y="1154" width="30" height="30" as="geometry" />
        </mxCell>
        <mxCell id="T4zsYafHRAHOymSspzd6-60" value="" style="rounded=1;whiteSpace=wrap;html=1;fillColor=#FFFFFF;" parent="WIyWlLk6GJQsqaUBKTNV-1" vertex="1">
          <mxGeometry x="20" y="1240" width="220" height="290" as="geometry" />
        </mxCell>
        <mxCell id="T4zsYafHRAHOymSspzd6-61" style="edgeStyle=orthogonalEdgeStyle;rounded=0;orthogonalLoop=1;jettySize=auto;html=1;" parent="WIyWlLk6GJQsqaUBKTNV-1" source="T4zsYafHRAHOymSspzd6-62" target="T4zsYafHRAHOymSspzd6-64" edge="1">
          <mxGeometry relative="1" as="geometry" />
        </mxCell>
        <mxCell id="T4zsYafHRAHOymSspzd6-62" value="" style="ellipse;whiteSpace=wrap;html=1;aspect=fixed;fillColor=#000000;" parent="WIyWlLk6GJQsqaUBKTNV-1" vertex="1">
          <mxGeometry x="128" y="1250" width="24" height="24" as="geometry" />
        </mxCell>
        <mxCell id="T4zsYafHRAHOymSspzd6-63" style="edgeStyle=orthogonalEdgeStyle;rounded=0;orthogonalLoop=1;jettySize=auto;html=1;entryX=0.5;entryY=0;entryDx=0;entryDy=0;" parent="WIyWlLk6GJQsqaUBKTNV-1" source="T4zsYafHRAHOymSspzd6-64" target="T4zsYafHRAHOymSspzd6-67" edge="1">
          <mxGeometry relative="1" as="geometry" />
        </mxCell>
        <mxCell id="T4zsYafHRAHOymSspzd6-64" value="install click listener 1" style="rounded=1;whiteSpace=wrap;html=1;fillColor=#FFFFFF;" parent="WIyWlLk6GJQsqaUBKTNV-1" vertex="1">
          <mxGeometry x="80" y="1300" width="120" height="30" as="geometry" />
        </mxCell>
        <mxCell id="T4zsYafHRAHOymSspzd6-65" value="" style="ellipse;html=1;shape=endState;fillColor=#000000;strokeColor=#ff0000;" parent="WIyWlLk6GJQsqaUBKTNV-1" vertex="1">
          <mxGeometry x="125" y="1490" width="30" height="30" as="geometry" />
        </mxCell>
        <mxCell id="T4zsYafHRAHOymSspzd6-66" style="edgeStyle=orthogonalEdgeStyle;rounded=0;orthogonalLoop=1;jettySize=auto;html=1;entryX=0.5;entryY=0;entryDx=0;entryDy=0;" parent="WIyWlLk6GJQsqaUBKTNV-1" source="T4zsYafHRAHOymSspzd6-67" target="T4zsYafHRAHOymSspzd6-69" edge="1">
          <mxGeometry relative="1" as="geometry" />
        </mxCell>
        <mxCell id="T4zsYafHRAHOymSspzd6-67" value="install click listener 2" style="rounded=1;whiteSpace=wrap;html=1;fillColor=#FFFFFF;" parent="WIyWlLk6GJQsqaUBKTNV-1" vertex="1">
          <mxGeometry x="80" y="1350" width="120" height="30" as="geometry" />
        </mxCell>
        <mxCell id="T4zsYafHRAHOymSspzd6-68" style="edgeStyle=orthogonalEdgeStyle;rounded=0;orthogonalLoop=1;jettySize=auto;html=1;entryX=0.5;entryY=0;entryDx=0;entryDy=0;" parent="WIyWlLk6GJQsqaUBKTNV-1" source="T4zsYafHRAHOymSspzd6-69" target="T4zsYafHRAHOymSspzd6-65" edge="1">
          <mxGeometry relative="1" as="geometry" />
        </mxCell>
        <mxCell id="T4zsYafHRAHOymSspzd6-69" value="Day&lt;br&gt;" style="rounded=1;whiteSpace=wrap;html=1;fillColor=#FFFFFF;" parent="WIyWlLk6GJQsqaUBKTNV-1" vertex="1">
          <mxGeometry x="80" y="1410" width="120" height="50" as="geometry" />
        </mxCell>
        <mxCell id="T4zsYafHRAHOymSspzd6-70" value="" style="line;strokeWidth=1;fillColor=none;align=left;verticalAlign=middle;spacingTop=-1;spacingLeft=3;spacingRight=3;rotatable=0;labelPosition=right;points=[];portConstraint=eastwest;flipH=1;" parent="WIyWlLk6GJQsqaUBKTNV-1" vertex="1">
          <mxGeometry x="120" y="1440" width="40" height="8" as="geometry" />
        </mxCell>
        <mxCell id="T4zsYafHRAHOymSspzd6-71" value="" style="line;strokeWidth=1;fillColor=none;align=left;verticalAlign=middle;spacingTop=-1;spacingLeft=3;spacingRight=3;rotatable=0;labelPosition=right;points=[];portConstraint=eastwest;direction=south;" parent="WIyWlLk6GJQsqaUBKTNV-1" vertex="1">
          <mxGeometry x="132.5" y="1438" width="15" height="10" as="geometry" />
        </mxCell>
        <mxCell id="T4zsYafHRAHOymSspzd6-72" value="" style="line;strokeWidth=1;fillColor=none;align=left;verticalAlign=middle;spacingTop=-1;spacingLeft=3;spacingRight=3;rotatable=0;labelPosition=right;points=[];portConstraint=eastwest;direction=south;" parent="WIyWlLk6GJQsqaUBKTNV-1" vertex="1">
          <mxGeometry x="120" y="1440" width="10" height="20" as="geometry" />
        </mxCell>
        <mxCell id="T4zsYafHRAHOymSspzd6-73" value="" style="line;strokeWidth=1;fillColor=none;align=left;verticalAlign=middle;spacingTop=-1;spacingLeft=3;spacingRight=3;rotatable=0;labelPosition=right;points=[];portConstraint=eastwest;direction=south;" parent="WIyWlLk6GJQsqaUBKTNV-1" vertex="1">
          <mxGeometry x="150" y="1440" width="10" height="20" as="geometry" />
        </mxCell>
        <mxCell id="T4zsYafHRAHOymSspzd6-74" value="&lt;font style=&quot;font-size: 18px&quot;&gt;handleLoad&lt;/font&gt;" style="text;html=1;strokeColor=none;fillColor=none;align=center;verticalAlign=middle;whiteSpace=wrap;rounded=0;" parent="WIyWlLk6GJQsqaUBKTNV-1" vertex="1">
          <mxGeometry x="40" y="1260" width="80" height="20" as="geometry" />
        </mxCell>
        <mxCell id="T4zsYafHRAHOymSspzd6-75" value="" style="rounded=1;whiteSpace=wrap;html=1;fillColor=#FFFFFF;" parent="WIyWlLk6GJQsqaUBKTNV-1" vertex="1">
          <mxGeometry x="250" y="1228" width="560" height="532" as="geometry" />
        </mxCell>
        <mxCell id="T4zsYafHRAHOymSspzd6-76" style="edgeStyle=orthogonalEdgeStyle;rounded=0;orthogonalLoop=1;jettySize=auto;html=1;" parent="WIyWlLk6GJQsqaUBKTNV-1" source="T4zsYafHRAHOymSspzd6-77" edge="1">
          <mxGeometry relative="1" as="geometry">
            <mxPoint x="530" y="1290" as="targetPoint" />
          </mxGeometry>
        </mxCell>
        <mxCell id="T4zsYafHRAHOymSspzd6-77" value="" style="ellipse;whiteSpace=wrap;html=1;aspect=fixed;fillColor=#000000;" parent="WIyWlLk6GJQsqaUBKTNV-1" vertex="1">
          <mxGeometry x="518" y="1240" width="24" height="24" as="geometry" />
        </mxCell>
        <mxCell id="T4zsYafHRAHOymSspzd6-80" value="" style="ellipse;html=1;shape=endState;fillColor=#000000;strokeColor=#ff0000;" parent="WIyWlLk6GJQsqaUBKTNV-1" vertex="1">
          <mxGeometry x="514" y="1719" width="30" height="30" as="geometry" />
        </mxCell>
        <mxCell id="T4zsYafHRAHOymSspzd6-89" value="&lt;font style=&quot;font-size: 18px&quot;&gt;Day&lt;/font&gt;" style="text;html=1;strokeColor=none;fillColor=none;align=center;verticalAlign=middle;whiteSpace=wrap;rounded=0;" parent="WIyWlLk6GJQsqaUBKTNV-1" vertex="1">
          <mxGeometry x="300" y="1260" width="80" height="20" as="geometry" />
        </mxCell>
        <mxCell id="T4zsYafHRAHOymSspzd6-92" value="" style="edgeStyle=orthogonalEdgeStyle;rounded=0;orthogonalLoop=1;jettySize=auto;html=1;" parent="WIyWlLk6GJQsqaUBKTNV-1" source="T4zsYafHRAHOymSspzd6-90" target="T4zsYafHRAHOymSspzd6-91" edge="1">
          <mxGeometry relative="1" as="geometry" />
        </mxCell>
        <mxCell id="T4zsYafHRAHOymSspzd6-90" value="&lt;div style=&quot;color: rgb(212 , 212 , 212) ; background-color: rgb(30 , 30 , 30) ; font-family: &amp;#34;consolas&amp;#34; , &amp;#34;courier new&amp;#34; , monospace ; font-size: 14px ; line-height: 19px&quot;&gt;&lt;div&gt;&lt;span style=&quot;color: #569cd6&quot;&gt;let&lt;/span&gt;&amp;nbsp;&lt;span style=&quot;color: #9cdcfe&quot;&gt;cow&lt;/span&gt;:&amp;nbsp;&lt;span style=&quot;color: #4ec9b0&quot;&gt;Animal&lt;/span&gt;&amp;nbsp;=&amp;nbsp;&lt;span style=&quot;color: #569cd6&quot;&gt;new&lt;/span&gt;&amp;nbsp;&lt;span style=&quot;color: #4ec9b0&quot;&gt;Animal&lt;/span&gt;(&lt;span style=&quot;color: #ce9178&quot;&gt;&quot;Gisela&quot;&lt;/span&gt;,&amp;nbsp;&lt;span style=&quot;color: #ce9178&quot;&gt;&quot;Cow&quot;&lt;/span&gt;,&amp;nbsp;&lt;span style=&quot;color: #ce9178&quot;&gt;&quot;Muu&quot;&lt;/span&gt;);&lt;/div&gt;&lt;div&gt;&lt;span style=&quot;color: #569cd6&quot;&gt;let&lt;/span&gt;&amp;nbsp;&lt;span style=&quot;color: #9cdcfe&quot;&gt;cat&lt;/span&gt;:&amp;nbsp;&lt;span style=&quot;color: #4ec9b0&quot;&gt;Animal&lt;/span&gt;&amp;nbsp;=&amp;nbsp;&lt;span style=&quot;color: #569cd6&quot;&gt;new&lt;/span&gt;&amp;nbsp;&lt;span style=&quot;color: #4ec9b0&quot;&gt;Animal&lt;/span&gt;(&lt;span style=&quot;color: #ce9178&quot;&gt;&quot;Gerdhilde&quot;&lt;/span&gt;,&amp;nbsp;&lt;span style=&quot;color: #ce9178&quot;&gt;&quot;Cat&quot;&lt;/span&gt;,&amp;nbsp;&lt;span style=&quot;color: #ce9178&quot;&gt;&quot;Miau&quot;&lt;/span&gt;);&lt;/div&gt;&lt;div&gt;&lt;span style=&quot;color: #569cd6&quot;&gt;let&lt;/span&gt;&amp;nbsp;&lt;span style=&quot;color: #9cdcfe&quot;&gt;pig&lt;/span&gt;:&amp;nbsp;&lt;span style=&quot;color: #4ec9b0&quot;&gt;Animal&lt;/span&gt;&amp;nbsp;=&amp;nbsp;&lt;span style=&quot;color: #569cd6&quot;&gt;new&lt;/span&gt;&amp;nbsp;&lt;span style=&quot;color: #4ec9b0&quot;&gt;Animal&lt;/span&gt;(&lt;span style=&quot;color: #ce9178&quot;&gt;&quot;Bert&quot;&lt;/span&gt;,&amp;nbsp;&lt;span style=&quot;color: #ce9178&quot;&gt;&quot;Pig&quot;&lt;/span&gt;,&amp;nbsp;&lt;span style=&quot;color: #ce9178&quot;&gt;&quot;Hoir&quot;&lt;/span&gt;);&lt;/div&gt;&lt;div&gt;&lt;span style=&quot;color: #569cd6&quot;&gt;let&lt;/span&gt;&amp;nbsp;&lt;span style=&quot;color: #9cdcfe&quot;&gt;horse&lt;/span&gt;:&amp;nbsp;&lt;span style=&quot;color: #4ec9b0&quot;&gt;Animal&lt;/span&gt;&amp;nbsp;=&amp;nbsp;&lt;span style=&quot;color: #569cd6&quot;&gt;new&lt;/span&gt;&amp;nbsp;&lt;span style=&quot;color: #4ec9b0&quot;&gt;Animal&lt;/span&gt;(&lt;span style=&quot;color: #ce9178&quot;&gt;&quot;Jonny&quot;&lt;/span&gt;,&amp;nbsp;&lt;span style=&quot;color: #ce9178&quot;&gt;&quot;Horse&quot;&lt;/span&gt;,&amp;nbsp;&lt;span style=&quot;color: #ce9178&quot;&gt;&quot;Hüüa&quot;&lt;/span&gt;);&lt;/div&gt;&lt;div&gt;&lt;span style=&quot;color: #569cd6&quot;&gt;let&lt;/span&gt;&amp;nbsp;&lt;span style=&quot;color: #9cdcfe&quot;&gt;dog&lt;/span&gt;:&amp;nbsp;&lt;span style=&quot;color: #4ec9b0&quot;&gt;Animal&lt;/span&gt;&amp;nbsp;=&amp;nbsp;&lt;span style=&quot;color: #569cd6&quot;&gt;new&lt;/span&gt;&amp;nbsp;&lt;span style=&quot;color: #4ec9b0&quot;&gt;Animal&lt;/span&gt;(&lt;span style=&quot;color: #ce9178&quot;&gt;&quot;Herbert&quot;&lt;/span&gt;,&amp;nbsp;&lt;span style=&quot;color: #ce9178&quot;&gt;&quot;Dog&quot;&lt;/span&gt;,&amp;nbsp;&lt;span style=&quot;color: #ce9178&quot;&gt;&quot;Wuff&quot;&lt;/span&gt;);&lt;/div&gt;&lt;div&gt;&lt;span style=&quot;color: #569cd6&quot;&gt;let&lt;/span&gt;&amp;nbsp;&lt;span style=&quot;color: #9cdcfe&quot;&gt;dayCounter&lt;/span&gt;:&amp;nbsp;&lt;span style=&quot;color: #4ec9b0&quot;&gt;HTMLElement&lt;/span&gt;&amp;nbsp;=&amp;nbsp;&amp;lt;&lt;span style=&quot;color: #4ec9b0&quot;&gt;HTMLElement&lt;/span&gt;&amp;gt;&lt;span style=&quot;color: #9cdcfe&quot;&gt;document&lt;/span&gt;.&lt;span style=&quot;color: #dcdcaa&quot;&gt;querySelector&lt;/span&gt;();&lt;/div&gt;&lt;/div&gt;" style="rounded=0;whiteSpace=wrap;html=1;fillColor=#FFFFFF;align=left;" parent="WIyWlLk6GJQsqaUBKTNV-1" vertex="1">
          <mxGeometry x="265" y="1290" width="530" height="130" as="geometry" />
        </mxCell>
        <mxCell id="T4zsYafHRAHOymSspzd6-94" style="edgeStyle=orthogonalEdgeStyle;rounded=0;orthogonalLoop=1;jettySize=auto;html=1;entryX=0.5;entryY=0;entryDx=0;entryDy=0;" parent="WIyWlLk6GJQsqaUBKTNV-1" source="T4zsYafHRAHOymSspzd6-91" target="T4zsYafHRAHOymSspzd6-93" edge="1">
          <mxGeometry relative="1" as="geometry" />
        </mxCell>
        <mxCell id="T4zsYafHRAHOymSspzd6-91" value="&lt;div style=&quot;background-color: rgb(30 , 30 , 30) ; font-family: &amp;#34;consolas&amp;#34; , &amp;#34;courier new&amp;#34; , monospace ; font-size: 14px ; line-height: 19px&quot;&gt;&lt;div style=&quot;color: rgb(212 , 212 , 212)&quot;&gt;&lt;span style=&quot;color: #dcdcaa&quot;&gt;setTimeout&lt;/span&gt;(&lt;span style=&quot;color: #569cd6&quot;&gt;function&lt;/span&gt;&amp;nbsp;():&amp;nbsp;&lt;span style=&quot;color: #4ec9b0&quot;&gt;void&lt;/span&gt;&amp;nbsp;{&lt;/div&gt;&lt;div&gt;&lt;font color=&quot;#d4d4d4&quot;&gt;&amp;nbsp; &amp;nbsp; &amp;nbsp; &amp;nbsp; &amp;nbsp; &amp;nbsp; &lt;/font&gt;&lt;font color=&quot;#9cdcfe&quot;&gt;animal&lt;/font&gt;&lt;font color=&quot;#d4d4d4&quot;&gt;.&lt;/font&gt;&lt;span style=&quot;color: rgb(220 , 220 , 170)&quot;&gt;eat&lt;/span&gt;&lt;font color=&quot;#d4d4d4&quot;&gt;(foodValue, foodConsume&lt;/font&gt;&lt;font color=&quot;#d4d4d4&quot;&gt;);&lt;/font&gt;&lt;/div&gt;&lt;div&gt;&lt;span style=&quot;color: rgb(212 , 212 , 212)&quot;&gt;&amp;nbsp; &amp;nbsp; &amp;nbsp; &amp;nbsp; &amp;nbsp; &amp;nbsp; &lt;/span&gt;&lt;font color=&quot;#9cdcfe&quot;&gt;animal&lt;/font&gt;&lt;font color=&quot;#d4d4d4&quot;&gt;.&lt;/font&gt;&lt;span style=&quot;color: rgb(220 , 220 , 170)&quot;&gt;sing&lt;/span&gt;&lt;font color=&quot;#d4d4d4&quot;&gt;(&lt;/font&gt;&lt;font color=&quot;#b5cea8&quot;&gt;foodValue&lt;/font&gt;&lt;font color=&quot;#d4d4d4&quot;&gt;);&lt;/font&gt;&lt;/div&gt;&lt;div&gt;&lt;font color=&quot;#d4d4d4&quot;&gt;&amp;nbsp; &amp;nbsp; &amp;nbsp; &amp;nbsp; &amp;nbsp; &amp;nbsp; animal.property();&lt;/font&gt;&lt;/div&gt;&lt;div style=&quot;color: rgb(212 , 212 , 212)&quot;&gt;&amp;nbsp;&amp;nbsp;&amp;nbsp;&amp;nbsp;&amp;nbsp;&amp;nbsp;&amp;nbsp;&amp;nbsp;}, 2&lt;span style=&quot;color: #b5cea8&quot;&gt;000&lt;/span&gt;);&lt;/div&gt;&lt;div style=&quot;color: rgb(212 , 212 , 212)&quot;&gt;&lt;br&gt;&lt;/div&gt;&lt;div style=&quot;color: rgb(212 , 212 , 212)&quot;&gt;Wird für jedes Tier gemacht in unterschiedlichen Zeitabständen.&lt;/div&gt;&lt;div style=&quot;color: rgb(212 , 212 , 212)&quot;&gt;&lt;br&gt;&lt;/div&gt;&lt;/div&gt;" style="whiteSpace=wrap;html=1;rounded=0;align=left;fillColor=#FFFFFF;" parent="WIyWlLk6GJQsqaUBKTNV-1" vertex="1">
          <mxGeometry x="340" y="1448" width="380" height="155" as="geometry" />
        </mxCell>
        <mxCell id="T4zsYafHRAHOymSspzd6-96" style="edgeStyle=orthogonalEdgeStyle;rounded=0;orthogonalLoop=1;jettySize=auto;html=1;entryX=0.5;entryY=0;entryDx=0;entryDy=0;" parent="WIyWlLk6GJQsqaUBKTNV-1" source="T4zsYafHRAHOymSspzd6-93" target="T4zsYafHRAHOymSspzd6-80" edge="1">
          <mxGeometry relative="1" as="geometry" />
        </mxCell>
        <mxCell id="T4zsYafHRAHOymSspzd6-93" value="counter++;&lt;br&gt;dayCounter.innerHTML = &quot;Day&quot; + counter;" style="rounded=1;whiteSpace=wrap;html=1;fillColor=#FFFFFF;" parent="WIyWlLk6GJQsqaUBKTNV-1" vertex="1">
          <mxGeometry x="404" y="1630" width="250" height="60" as="geometry" />
        </mxCell>
        <mxCell id="T4zsYafHRAHOymSspzd6-117" value="" style="rounded=1;whiteSpace=wrap;html=1;fillColor=#FFFFFF;" parent="WIyWlLk6GJQsqaUBKTNV-1" vertex="1">
          <mxGeometry x="262.5" y="1780" width="533" height="440" as="geometry" />
        </mxCell>
        <mxCell id="T4zsYafHRAHOymSspzd6-118" value="&lt;span style=&quot;font-size: 18px&quot;&gt;valuePlus&lt;/span&gt;" style="text;html=1;strokeColor=none;fillColor=none;align=center;verticalAlign=middle;whiteSpace=wrap;rounded=0;" parent="WIyWlLk6GJQsqaUBKTNV-1" vertex="1">
          <mxGeometry x="280.5" y="1810" width="80" height="20" as="geometry" />
        </mxCell>
        <mxCell id="T4zsYafHRAHOymSspzd6-119" style="edgeStyle=orthogonalEdgeStyle;rounded=0;orthogonalLoop=1;jettySize=auto;html=1;entryX=0.5;entryY=0;entryDx=0;entryDy=0;" parent="WIyWlLk6GJQsqaUBKTNV-1" source="T4zsYafHRAHOymSspzd6-120" target="T4zsYafHRAHOymSspzd6-122" edge="1">
          <mxGeometry relative="1" as="geometry" />
        </mxCell>
        <mxCell id="T4zsYafHRAHOymSspzd6-120" value="" style="ellipse;whiteSpace=wrap;html=1;aspect=fixed;fillColor=#000000;" parent="WIyWlLk6GJQsqaUBKTNV-1" vertex="1">
          <mxGeometry x="533.5" y="1800" width="24" height="24" as="geometry" />
        </mxCell>
        <mxCell id="T4zsYafHRAHOymSspzd6-121" style="edgeStyle=orthogonalEdgeStyle;rounded=0;orthogonalLoop=1;jettySize=auto;html=1;entryX=0.5;entryY=0;entryDx=0;entryDy=0;" parent="WIyWlLk6GJQsqaUBKTNV-1" source="T4zsYafHRAHOymSspzd6-122" target="T4zsYafHRAHOymSspzd6-126" edge="1">
          <mxGeometry relative="1" as="geometry" />
        </mxCell>
        <mxCell id="T4zsYafHRAHOymSspzd6-122" value="let defaultFood: number[] = []" style="rounded=0;whiteSpace=wrap;html=1;fillColor=#FFFFFF;" parent="WIyWlLk6GJQsqaUBKTNV-1" vertex="1">
          <mxGeometry x="459.5" y="1860" width="170" height="40" as="geometry" />
        </mxCell>
        <mxCell id="T4zsYafHRAHOymSspzd6-123" style="edgeStyle=orthogonalEdgeStyle;rounded=0;orthogonalLoop=1;jettySize=auto;html=1;exitX=1;exitY=1;exitDx=0;exitDy=0;" parent="WIyWlLk6GJQsqaUBKTNV-1" source="T4zsYafHRAHOymSspzd6-126" edge="1">
          <mxGeometry relative="1" as="geometry">
            <mxPoint x="545.5" y="1960" as="targetPoint" />
          </mxGeometry>
        </mxCell>
        <mxCell id="T4zsYafHRAHOymSspzd6-124" style="edgeStyle=orthogonalEdgeStyle;rounded=0;orthogonalLoop=1;jettySize=auto;html=1;entryX=0.5;entryY=0;entryDx=0;entryDy=0;" parent="WIyWlLk6GJQsqaUBKTNV-1" source="T4zsYafHRAHOymSspzd6-126" target="T4zsYafHRAHOymSspzd6-128" edge="1">
          <mxGeometry relative="1" as="geometry" />
        </mxCell>
        <mxCell id="T4zsYafHRAHOymSspzd6-125" style="edgeStyle=orthogonalEdgeStyle;rounded=0;orthogonalLoop=1;jettySize=auto;html=1;" parent="WIyWlLk6GJQsqaUBKTNV-1" source="T4zsYafHRAHOymSspzd6-126" edge="1">
          <mxGeometry relative="1" as="geometry">
            <mxPoint x="285.5" y="2190" as="targetPoint" />
          </mxGeometry>
        </mxCell>
        <mxCell id="T4zsYafHRAHOymSspzd6-126" value="" style="rhombus;whiteSpace=wrap;html=1;fillColor=#FFFFFF;" parent="WIyWlLk6GJQsqaUBKTNV-1" vertex="1">
          <mxGeometry x="525.5" y="1950" width="40" height="40" as="geometry" />
        </mxCell>
        <mxCell id="T4zsYafHRAHOymSspzd6-127" style="edgeStyle=orthogonalEdgeStyle;rounded=0;orthogonalLoop=1;jettySize=auto;html=1;" parent="WIyWlLk6GJQsqaUBKTNV-1" source="T4zsYafHRAHOymSspzd6-128" edge="1">
          <mxGeometry relative="1" as="geometry">
            <mxPoint x="765.5" y="1970" as="targetPoint" />
          </mxGeometry>
        </mxCell>
        <mxCell id="T4zsYafHRAHOymSspzd6-128" value="amountFood[index]. amount = defaultFood[index]&lt;br&gt;dom = document.querySelector(&quot;animal&quot; + index);&lt;br&gt;dom.innerHTML = &quot;OldMcDonald got&quot; + amountFood[index].amount + &quot;Kg&quot; + amountFood[index].name + &quot;left&quot;" style="rounded=1;whiteSpace=wrap;html=1;fillColor=#FFFFFF;" parent="WIyWlLk6GJQsqaUBKTNV-1" vertex="1">
          <mxGeometry x="395.5" y="2030" width="301" height="100" as="geometry" />
        </mxCell>
        <mxCell id="T4zsYafHRAHOymSspzd6-129" value="" style="ellipse;html=1;shape=endState;fillColor=#000000;strokeColor=#ff0000;" parent="WIyWlLk6GJQsqaUBKTNV-1" vertex="1">
          <mxGeometry x="531" y="2170" width="30" height="30" as="geometry" />
        </mxCell>
        <mxCell id="T4zsYafHRAHOymSspzd6-130" value="" style="endArrow=classic;html=1;entryX=0.15;entryY=0.667;entryDx=0;entryDy=0;entryPerimeter=0;" parent="WIyWlLk6GJQsqaUBKTNV-1" target="T4zsYafHRAHOymSspzd6-129" edge="1">
          <mxGeometry width="50" height="50" relative="1" as="geometry">
            <mxPoint x="285.5" y="2190" as="sourcePoint" />
            <mxPoint x="555.5" y="2090" as="targetPoint" />
          </mxGeometry>
        </mxCell>
        <mxCell id="T4zsYafHRAHOymSspzd6-131" value="" style="endArrow=classic;html=1;entryX=1;entryY=0.5;entryDx=0;entryDy=0;" parent="WIyWlLk6GJQsqaUBKTNV-1" target="T4zsYafHRAHOymSspzd6-126" edge="1">
          <mxGeometry width="50" height="50" relative="1" as="geometry">
            <mxPoint x="765.5" y="1969" as="sourcePoint" />
            <mxPoint x="405.5" y="1969" as="targetPoint" />
          </mxGeometry>
        </mxCell>
        <mxCell id="T4zsYafHRAHOymSspzd6-132" value="for(i=0, i &amp;lt; defaultFood.lenght, i++)" style="text;html=1;strokeColor=none;fillColor=none;align=center;verticalAlign=middle;whiteSpace=wrap;rounded=0;" parent="WIyWlLk6GJQsqaUBKTNV-1" vertex="1">
          <mxGeometry x="335.5" y="2000" width="210" height="20" as="geometry" />
        </mxCell>
        <mxCell id="T4zsYafHRAHOymSspzd6-133" value="" style="edgeStyle=orthogonalEdgeStyle;rounded=0;orthogonalLoop=1;jettySize=auto;html=1;" parent="WIyWlLk6GJQsqaUBKTNV-1" source="T4zsYafHRAHOymSspzd6-134" target="T4zsYafHRAHOymSspzd6-136" edge="1">
          <mxGeometry relative="1" as="geometry" />
        </mxCell>
        <mxCell id="T4zsYafHRAHOymSspzd6-134" value="" style="ellipse;whiteSpace=wrap;html=1;aspect=fixed;fillColor=#000000;" parent="WIyWlLk6GJQsqaUBKTNV-1" vertex="1">
          <mxGeometry x="131" y="2280" width="24" height="24" as="geometry" />
        </mxCell>
        <mxCell id="T4zsYafHRAHOymSspzd6-143" style="edgeStyle=orthogonalEdgeStyle;rounded=0;orthogonalLoop=1;jettySize=auto;html=1;entryX=0.5;entryY=0;entryDx=0;entryDy=0;" parent="WIyWlLk6GJQsqaUBKTNV-1" source="T4zsYafHRAHOymSspzd6-136" target="T4zsYafHRAHOymSspzd6-141" edge="1">
          <mxGeometry relative="1" as="geometry" />
        </mxCell>
        <mxCell id="T4zsYafHRAHOymSspzd6-136" value="public name: string&lt;br&gt;public food: string&lt;br&gt;public sound: string" style="whiteSpace=wrap;html=1;fillColor=#FFFFFF;" parent="WIyWlLk6GJQsqaUBKTNV-1" vertex="1">
          <mxGeometry x="24" y="2330" width="238" height="54" as="geometry" />
        </mxCell>
        <mxCell id="T4zsYafHRAHOymSspzd6-141" value="" style="ellipse;html=1;shape=endState;fillColor=#000000;strokeColor=#ff0000;" parent="WIyWlLk6GJQsqaUBKTNV-1" vertex="1">
          <mxGeometry x="128" y="2420" width="30" height="30" as="geometry" />
        </mxCell>
        <mxCell id="T4zsYafHRAHOymSspzd6-151" value="" style="rounded=1;whiteSpace=wrap;html=1;fillColor=#FFFFFF;" parent="WIyWlLk6GJQsqaUBKTNV-1" vertex="1">
          <mxGeometry x="404" y="2320" width="360" height="250" as="geometry" />
        </mxCell>
        <mxCell id="T4zsYafHRAHOymSspzd6-152" style="edgeStyle=orthogonalEdgeStyle;rounded=0;orthogonalLoop=1;jettySize=auto;html=1;entryX=0.5;entryY=0;entryDx=0;entryDy=0;" parent="WIyWlLk6GJQsqaUBKTNV-1" source="T4zsYafHRAHOymSspzd6-153" target="T4zsYafHRAHOymSspzd6-156" edge="1">
          <mxGeometry relative="1" as="geometry" />
        </mxCell>
        <mxCell id="T4zsYafHRAHOymSspzd6-153" value="_foodValue: number&lt;br&gt;_foodConsume: number" style="rounded=0;whiteSpace=wrap;html=1;fillColor=#FFFFFF;" parent="WIyWlLk6GJQsqaUBKTNV-1" vertex="1">
          <mxGeometry x="524" y="2290" width="140" height="60" as="geometry" />
        </mxCell>
        <mxCell id="T4zsYafHRAHOymSspzd6-154" value="&lt;font style=&quot;font-size: 18px&quot;&gt;eat&lt;/font&gt;" style="text;html=1;strokeColor=none;fillColor=none;align=center;verticalAlign=middle;whiteSpace=wrap;rounded=0;" parent="WIyWlLk6GJQsqaUBKTNV-1" vertex="1">
          <mxGeometry x="419" y="2330" width="40" height="20" as="geometry" />
        </mxCell>
        <mxCell id="T4zsYafHRAHOymSspzd6-155" style="edgeStyle=orthogonalEdgeStyle;rounded=0;orthogonalLoop=1;jettySize=auto;html=1;entryX=0.5;entryY=0;entryDx=0;entryDy=0;" parent="WIyWlLk6GJQsqaUBKTNV-1" source="T4zsYafHRAHOymSspzd6-156" target="T4zsYafHRAHOymSspzd6-157" edge="1">
          <mxGeometry relative="1" as="geometry" />
        </mxCell>
        <mxCell id="T4zsYafHRAHOymSspzd6-156" value="amountFood[_foodConsume].amount = _foodValue&lt;br&gt;dom = document.querySelector(&quot;animal&quot; + _foodConsume);&lt;br&gt;dom.innerHTML = &quot;OldMcDonald got&quot; + amountFood[_foodConsume].amount + &quot;Kg&quot; + amountFood[_foodConsume].name + &quot;left&quot;;" style="rounded=1;whiteSpace=wrap;html=1;fillColor=#FFFFFF;" parent="WIyWlLk6GJQsqaUBKTNV-1" vertex="1">
          <mxGeometry x="446" y="2385" width="296" height="120" as="geometry" />
        </mxCell>
        <mxCell id="T4zsYafHRAHOymSspzd6-157" value="" style="ellipse;html=1;shape=endState;fillColor=#000000;strokeColor=#ff0000;" parent="WIyWlLk6GJQsqaUBKTNV-1" vertex="1">
          <mxGeometry x="579" y="2530" width="30" height="30" as="geometry" />
        </mxCell>
        <mxCell id="T4zsYafHRAHOymSspzd6-158" value="" style="rounded=1;whiteSpace=wrap;html=1;fillColor=#FFFFFF;" parent="WIyWlLk6GJQsqaUBKTNV-1" vertex="1">
          <mxGeometry x="419" y="2630" width="385" height="360" as="geometry" />
        </mxCell>
        <mxCell id="T4zsYafHRAHOymSspzd6-159" style="edgeStyle=orthogonalEdgeStyle;rounded=0;orthogonalLoop=1;jettySize=auto;html=1;entryX=0.5;entryY=0;entryDx=0;entryDy=0;" parent="WIyWlLk6GJQsqaUBKTNV-1" source="T4zsYafHRAHOymSspzd6-160" target="T4zsYafHRAHOymSspzd6-163" edge="1">
          <mxGeometry relative="1" as="geometry" />
        </mxCell>
        <mxCell id="T4zsYafHRAHOymSspzd6-160" value="_foodValue: number" style="rounded=0;whiteSpace=wrap;html=1;fillColor=#FFFFFF;" parent="WIyWlLk6GJQsqaUBKTNV-1" vertex="1">
          <mxGeometry x="539" y="2600" width="140" height="60" as="geometry" />
        </mxCell>
        <mxCell id="T4zsYafHRAHOymSspzd6-161" value="&lt;font style=&quot;font-size: 18px&quot;&gt;sing&lt;/font&gt;" style="text;html=1;strokeColor=none;fillColor=none;align=center;verticalAlign=middle;whiteSpace=wrap;rounded=0;" parent="WIyWlLk6GJQsqaUBKTNV-1" vertex="1">
          <mxGeometry x="434" y="2640" width="40" height="20" as="geometry" />
        </mxCell>
        <mxCell id="T4zsYafHRAHOymSspzd6-168" style="edgeStyle=orthogonalEdgeStyle;rounded=0;orthogonalLoop=1;jettySize=auto;html=1;entryX=0.5;entryY=0;entryDx=0;entryDy=0;" parent="WIyWlLk6GJQsqaUBKTNV-1" source="T4zsYafHRAHOymSspzd6-163" target="T4zsYafHRAHOymSspzd6-166" edge="1">
          <mxGeometry relative="1" as="geometry" />
        </mxCell>
        <mxCell id="T4zsYafHRAHOymSspzd6-163" value="&lt;div&gt;let animal: HTMLElement =&amp;nbsp;&lt;span&gt;document.querySelector(&quot;animalName&quot;);&lt;/span&gt;&lt;/div&gt;&lt;div&gt;let song: HTMLElement =&amp;nbsp;&lt;span&gt;document.querySelector(&quot;songAnimal&quot;);&lt;/span&gt;&lt;/div&gt;&lt;div&gt;let eating: HTMLElement =&lt;/div&gt;&lt;div&gt;document.querySelector(&quot;eatingAnimal&quot;);&lt;/div&gt;" style="rounded=1;whiteSpace=wrap;html=1;fillColor=#FFFFFF;" parent="WIyWlLk6GJQsqaUBKTNV-1" vertex="1">
          <mxGeometry x="437.5" y="2695" width="343" height="120" as="geometry" />
        </mxCell>
        <mxCell id="T4zsYafHRAHOymSspzd6-164" value="" style="ellipse;html=1;shape=endState;fillColor=#000000;strokeColor=#ff0000;" parent="WIyWlLk6GJQsqaUBKTNV-1" vertex="1">
          <mxGeometry x="596.5" y="2940" width="30" height="30" as="geometry" />
        </mxCell>
        <mxCell id="T4zsYafHRAHOymSspzd6-169" style="edgeStyle=orthogonalEdgeStyle;rounded=0;orthogonalLoop=1;jettySize=auto;html=1;entryX=0.5;entryY=0;entryDx=0;entryDy=0;" parent="WIyWlLk6GJQsqaUBKTNV-1" source="T4zsYafHRAHOymSspzd6-166" target="T4zsYafHRAHOymSspzd6-164" edge="1">
          <mxGeometry relative="1" as="geometry" />
        </mxCell>
        <mxCell id="T4zsYafHRAHOymSspzd6-166" value="&lt;div&gt;animal.innerHTML = this.name;&lt;/div&gt;&lt;div&gt;song.innerHTML = Songtext;&lt;/div&gt;&lt;div&gt;eating.innerHTML = Anzahl des Fressen&lt;span&gt;;&lt;/span&gt;&lt;/div&gt;" style="rounded=1;whiteSpace=wrap;html=1;fillColor=#FFFFFF;" parent="WIyWlLk6GJQsqaUBKTNV-1" vertex="1">
          <mxGeometry x="440" y="2850" width="343" height="60" as="geometry" />
        </mxCell>
        <mxCell id="tgA9xJLdbsoCeHox-Hhx-0" value="cow" style="swimlane;fontStyle=0;align=center;verticalAlign=top;childLayout=stackLayout;horizontal=1;startSize=26;horizontalStack=0;resizeParent=1;resizeLast=0;collapsible=1;marginBottom=0;rounded=0;shadow=0;strokeWidth=1;" vertex="1" parent="WIyWlLk6GJQsqaUBKTNV-1">
          <mxGeometry x="5" y="270" width="240" height="90" as="geometry">
            <mxRectangle x="550" y="140" width="160" height="26" as="alternateBounds" />
          </mxGeometry>
        </mxCell>
        <mxCell id="tgA9xJLdbsoCeHox-Hhx-1" value="cowProperty: string = &quot;I spend some milk&quot;" style="text;align=left;verticalAlign=top;spacingLeft=4;spacingRight=4;overflow=hidden;rotatable=0;points=[[0,0.5],[1,0.5]];portConstraint=eastwest;" vertex="1" parent="tgA9xJLdbsoCeHox-Hhx-0">
          <mxGeometry y="26" width="240" height="26" as="geometry" />
        </mxCell>
        <mxCell id="tgA9xJLdbsoCeHox-Hhx-4" value="" style="line;html=1;strokeWidth=1;align=left;verticalAlign=middle;spacingTop=-1;spacingLeft=3;spacingRight=3;rotatable=0;labelPosition=right;points=[];portConstraint=eastwest;" vertex="1" parent="tgA9xJLdbsoCeHox-Hhx-0">
          <mxGeometry y="52" width="240" height="8" as="geometry" />
        </mxCell>
        <mxCell id="tgA9xJLdbsoCeHox-Hhx-5" value="cowActivity()" style="text;align=left;verticalAlign=top;spacingLeft=4;spacingRight=4;overflow=hidden;rotatable=0;points=[[0,0.5],[1,0.5]];portConstraint=eastwest;" vertex="1" parent="tgA9xJLdbsoCeHox-Hhx-0">
          <mxGeometry y="60" width="240" height="26" as="geometry" />
        </mxCell>
        <mxCell id="tgA9xJLdbsoCeHox-Hhx-8" value="cat" style="swimlane;fontStyle=0;align=center;verticalAlign=top;childLayout=stackLayout;horizontal=1;startSize=26;horizontalStack=0;resizeParent=1;resizeLast=0;collapsible=1;marginBottom=0;rounded=0;shadow=0;strokeWidth=1;" vertex="1" parent="WIyWlLk6GJQsqaUBKTNV-1">
          <mxGeometry x="291" y="270" width="240" height="90" as="geometry">
            <mxRectangle x="550" y="140" width="160" height="26" as="alternateBounds" />
          </mxGeometry>
        </mxCell>
        <mxCell id="tgA9xJLdbsoCeHox-Hhx-9" value="catProperty: string = &quot;I catch some mouses&quot;" style="text;align=left;verticalAlign=top;spacingLeft=4;spacingRight=4;overflow=hidden;rotatable=0;points=[[0,0.5],[1,0.5]];portConstraint=eastwest;" vertex="1" parent="tgA9xJLdbsoCeHox-Hhx-8">
          <mxGeometry y="26" width="240" height="26" as="geometry" />
        </mxCell>
        <mxCell id="tgA9xJLdbsoCeHox-Hhx-10" value="" style="line;html=1;strokeWidth=1;align=left;verticalAlign=middle;spacingTop=-1;spacingLeft=3;spacingRight=3;rotatable=0;labelPosition=right;points=[];portConstraint=eastwest;" vertex="1" parent="tgA9xJLdbsoCeHox-Hhx-8">
          <mxGeometry y="52" width="240" height="8" as="geometry" />
        </mxCell>
        <mxCell id="tgA9xJLdbsoCeHox-Hhx-11" value="catActivity()" style="text;align=left;verticalAlign=top;spacingLeft=4;spacingRight=4;overflow=hidden;rotatable=0;points=[[0,0.5],[1,0.5]];portConstraint=eastwest;" vertex="1" parent="tgA9xJLdbsoCeHox-Hhx-8">
          <mxGeometry y="60" width="240" height="26" as="geometry" />
        </mxCell>
        <mxCell id="tgA9xJLdbsoCeHox-Hhx-16" value="pig" style="swimlane;fontStyle=0;align=center;verticalAlign=top;childLayout=stackLayout;horizontal=1;startSize=26;horizontalStack=0;resizeParent=1;resizeLast=0;collapsible=1;marginBottom=0;rounded=0;shadow=0;strokeWidth=1;" vertex="1" parent="WIyWlLk6GJQsqaUBKTNV-1">
          <mxGeometry x="5" y="420" width="240" height="90" as="geometry">
            <mxRectangle x="550" y="140" width="160" height="26" as="alternateBounds" />
          </mxGeometry>
        </mxCell>
        <mxCell id="tgA9xJLdbsoCeHox-Hhx-17" value="pigProperty: string = &quot;I eat your leftovers&quot;" style="text;align=left;verticalAlign=top;spacingLeft=4;spacingRight=4;overflow=hidden;rotatable=0;points=[[0,0.5],[1,0.5]];portConstraint=eastwest;" vertex="1" parent="tgA9xJLdbsoCeHox-Hhx-16">
          <mxGeometry y="26" width="240" height="26" as="geometry" />
        </mxCell>
        <mxCell id="tgA9xJLdbsoCeHox-Hhx-18" value="" style="line;html=1;strokeWidth=1;align=left;verticalAlign=middle;spacingTop=-1;spacingLeft=3;spacingRight=3;rotatable=0;labelPosition=right;points=[];portConstraint=eastwest;" vertex="1" parent="tgA9xJLdbsoCeHox-Hhx-16">
          <mxGeometry y="52" width="240" height="8" as="geometry" />
        </mxCell>
        <mxCell id="tgA9xJLdbsoCeHox-Hhx-19" value="pigActivity()" style="text;align=left;verticalAlign=top;spacingLeft=4;spacingRight=4;overflow=hidden;rotatable=0;points=[[0,0.5],[1,0.5]];portConstraint=eastwest;" vertex="1" parent="tgA9xJLdbsoCeHox-Hhx-16">
          <mxGeometry y="60" width="240" height="26" as="geometry" />
        </mxCell>
        <mxCell id="tgA9xJLdbsoCeHox-Hhx-20" value="horse" style="swimlane;fontStyle=0;align=center;verticalAlign=top;childLayout=stackLayout;horizontal=1;startSize=26;horizontalStack=0;resizeParent=1;resizeLast=0;collapsible=1;marginBottom=0;rounded=0;shadow=0;strokeWidth=1;" vertex="1" parent="WIyWlLk6GJQsqaUBKTNV-1">
          <mxGeometry x="291" y="420" width="240" height="90" as="geometry">
            <mxRectangle x="550" y="140" width="160" height="26" as="alternateBounds" />
          </mxGeometry>
        </mxCell>
        <mxCell id="tgA9xJLdbsoCeHox-Hhx-21" value="horseProperty: string = &quot;I have 1PS&quot;" style="text;align=left;verticalAlign=top;spacingLeft=4;spacingRight=4;overflow=hidden;rotatable=0;points=[[0,0.5],[1,0.5]];portConstraint=eastwest;" vertex="1" parent="tgA9xJLdbsoCeHox-Hhx-20">
          <mxGeometry y="26" width="240" height="26" as="geometry" />
        </mxCell>
        <mxCell id="tgA9xJLdbsoCeHox-Hhx-22" value="" style="line;html=1;strokeWidth=1;align=left;verticalAlign=middle;spacingTop=-1;spacingLeft=3;spacingRight=3;rotatable=0;labelPosition=right;points=[];portConstraint=eastwest;" vertex="1" parent="tgA9xJLdbsoCeHox-Hhx-20">
          <mxGeometry y="52" width="240" height="8" as="geometry" />
        </mxCell>
        <mxCell id="tgA9xJLdbsoCeHox-Hhx-23" value="horseActivity()" style="text;align=left;verticalAlign=top;spacingLeft=4;spacingRight=4;overflow=hidden;rotatable=0;points=[[0,0.5],[1,0.5]];portConstraint=eastwest;" vertex="1" parent="tgA9xJLdbsoCeHox-Hhx-20">
          <mxGeometry y="60" width="240" height="26" as="geometry" />
        </mxCell>
        <mxCell id="tgA9xJLdbsoCeHox-Hhx-24" value="dog" style="swimlane;fontStyle=0;align=center;verticalAlign=top;childLayout=stackLayout;horizontal=1;startSize=26;horizontalStack=0;resizeParent=1;resizeLast=0;collapsible=1;marginBottom=0;rounded=0;shadow=0;strokeWidth=1;" vertex="1" parent="WIyWlLk6GJQsqaUBKTNV-1">
          <mxGeometry x="561" y="270" width="257" height="90" as="geometry">
            <mxRectangle x="550" y="140" width="160" height="26" as="alternateBounds" />
          </mxGeometry>
        </mxCell>
        <mxCell id="tgA9xJLdbsoCeHox-Hhx-25" value="dogProperty: string = &quot;I follow you every day&quot;" style="text;align=left;verticalAlign=top;spacingLeft=4;spacingRight=4;overflow=hidden;rotatable=0;points=[[0,0.5],[1,0.5]];portConstraint=eastwest;" vertex="1" parent="tgA9xJLdbsoCeHox-Hhx-24">
          <mxGeometry y="26" width="257" height="26" as="geometry" />
        </mxCell>
        <mxCell id="tgA9xJLdbsoCeHox-Hhx-26" value="" style="line;html=1;strokeWidth=1;align=left;verticalAlign=middle;spacingTop=-1;spacingLeft=3;spacingRight=3;rotatable=0;labelPosition=right;points=[];portConstraint=eastwest;" vertex="1" parent="tgA9xJLdbsoCeHox-Hhx-24">
          <mxGeometry y="52" width="257" height="8" as="geometry" />
        </mxCell>
        <mxCell id="tgA9xJLdbsoCeHox-Hhx-27" value="dogActivity()" style="text;align=left;verticalAlign=top;spacingLeft=4;spacingRight=4;overflow=hidden;rotatable=0;points=[[0,0.5],[1,0.5]];portConstraint=eastwest;" vertex="1" parent="tgA9xJLdbsoCeHox-Hhx-24">
          <mxGeometry y="60" width="257" height="26" as="geometry" />
        </mxCell>
        <mxCell id="tgA9xJLdbsoCeHox-Hhx-28" value="" style="edgeStyle=orthogonalEdgeStyle;rounded=0;orthogonalLoop=1;jettySize=auto;html=1;" edge="1" parent="WIyWlLk6GJQsqaUBKTNV-1" source="tgA9xJLdbsoCeHox-Hhx-29" target="tgA9xJLdbsoCeHox-Hhx-31">
          <mxGeometry relative="1" as="geometry" />
        </mxCell>
        <mxCell id="tgA9xJLdbsoCeHox-Hhx-29" value="" style="ellipse;whiteSpace=wrap;html=1;aspect=fixed;fillColor=#000000;" vertex="1" parent="WIyWlLk6GJQsqaUBKTNV-1">
          <mxGeometry x="137" y="3030" width="24" height="24" as="geometry" />
        </mxCell>
        <mxCell id="tgA9xJLdbsoCeHox-Hhx-30" style="edgeStyle=orthogonalEdgeStyle;rounded=0;orthogonalLoop=1;jettySize=auto;html=1;entryX=0.5;entryY=0;entryDx=0;entryDy=0;" edge="1" parent="WIyWlLk6GJQsqaUBKTNV-1" source="tgA9xJLdbsoCeHox-Hhx-31" target="tgA9xJLdbsoCeHox-Hhx-32">
          <mxGeometry relative="1" as="geometry" />
        </mxCell>
        <mxCell id="tgA9xJLdbsoCeHox-Hhx-31" value="cowProperty: string = &quot;I spend some milk&quot;" style="whiteSpace=wrap;html=1;fillColor=#FFFFFF;" vertex="1" parent="WIyWlLk6GJQsqaUBKTNV-1">
          <mxGeometry x="30" y="3080" width="238" height="54" as="geometry" />
        </mxCell>
        <mxCell id="tgA9xJLdbsoCeHox-Hhx-32" value="" style="ellipse;html=1;shape=endState;fillColor=#000000;strokeColor=#ff0000;" vertex="1" parent="WIyWlLk6GJQsqaUBKTNV-1">
          <mxGeometry x="134" y="3170" width="30" height="30" as="geometry" />
        </mxCell>
        <mxCell id="tgA9xJLdbsoCeHox-Hhx-33" value="" style="rounded=1;whiteSpace=wrap;html=1;" vertex="1" parent="WIyWlLk6GJQsqaUBKTNV-1">
          <mxGeometry x="398" y="3030" width="352" height="170" as="geometry" />
        </mxCell>
        <mxCell id="tgA9xJLdbsoCeHox-Hhx-34" value="" style="edgeStyle=orthogonalEdgeStyle;rounded=0;orthogonalLoop=1;jettySize=auto;html=1;" edge="1" parent="WIyWlLk6GJQsqaUBKTNV-1" source="tgA9xJLdbsoCeHox-Hhx-35">
          <mxGeometry relative="1" as="geometry">
            <mxPoint x="622.5" y="3087" as="targetPoint" />
          </mxGeometry>
        </mxCell>
        <mxCell id="tgA9xJLdbsoCeHox-Hhx-35" value="" style="ellipse;whiteSpace=wrap;html=1;aspect=fixed;fillColor=#000000;" vertex="1" parent="WIyWlLk6GJQsqaUBKTNV-1">
          <mxGeometry x="610.5" y="3037" width="24" height="24" as="geometry" />
        </mxCell>
        <mxCell id="tgA9xJLdbsoCeHox-Hhx-36" style="edgeStyle=orthogonalEdgeStyle;rounded=0;orthogonalLoop=1;jettySize=auto;html=1;entryX=0.5;entryY=0;entryDx=0;entryDy=0;" edge="1" parent="WIyWlLk6GJQsqaUBKTNV-1" target="tgA9xJLdbsoCeHox-Hhx-38">
          <mxGeometry relative="1" as="geometry">
            <mxPoint x="622.5" y="3127" as="sourcePoint" />
          </mxGeometry>
        </mxCell>
        <mxCell id="tgA9xJLdbsoCeHox-Hhx-38" value="" style="ellipse;html=1;shape=endState;fillColor=#000000;strokeColor=#ff0000;" vertex="1" parent="WIyWlLk6GJQsqaUBKTNV-1">
          <mxGeometry x="607.5" y="3163" width="30" height="30" as="geometry" />
        </mxCell>
        <mxCell id="tgA9xJLdbsoCeHox-Hhx-39" value="console.log(&quot;I spend some milk&quot;)" style="rounded=1;whiteSpace=wrap;html=1;" vertex="1" parent="WIyWlLk6GJQsqaUBKTNV-1">
          <mxGeometry x="507.5" y="3087" width="230" height="40" as="geometry" />
        </mxCell>
        <mxCell id="tgA9xJLdbsoCeHox-Hhx-40" value="&lt;font style=&quot;font-size: 18px&quot;&gt;cowActivity&lt;/font&gt;" style="text;html=1;strokeColor=none;fillColor=none;align=center;verticalAlign=middle;whiteSpace=wrap;rounded=0;" vertex="1" parent="WIyWlLk6GJQsqaUBKTNV-1">
          <mxGeometry x="410.5" y="3037" width="99.5" height="20" as="geometry" />
        </mxCell>
        <mxCell id="tgA9xJLdbsoCeHox-Hhx-41" value="" style="edgeStyle=orthogonalEdgeStyle;rounded=0;orthogonalLoop=1;jettySize=auto;html=1;" edge="1" parent="WIyWlLk6GJQsqaUBKTNV-1" source="tgA9xJLdbsoCeHox-Hhx-42" target="tgA9xJLdbsoCeHox-Hhx-44">
          <mxGeometry relative="1" as="geometry" />
        </mxCell>
        <mxCell id="tgA9xJLdbsoCeHox-Hhx-42" value="" style="ellipse;whiteSpace=wrap;html=1;aspect=fixed;fillColor=#000000;" vertex="1" parent="WIyWlLk6GJQsqaUBKTNV-1">
          <mxGeometry x="137" y="3240" width="24" height="24" as="geometry" />
        </mxCell>
        <mxCell id="tgA9xJLdbsoCeHox-Hhx-43" style="edgeStyle=orthogonalEdgeStyle;rounded=0;orthogonalLoop=1;jettySize=auto;html=1;entryX=0.5;entryY=0;entryDx=0;entryDy=0;" edge="1" parent="WIyWlLk6GJQsqaUBKTNV-1" source="tgA9xJLdbsoCeHox-Hhx-44" target="tgA9xJLdbsoCeHox-Hhx-45">
          <mxGeometry relative="1" as="geometry" />
        </mxCell>
        <mxCell id="tgA9xJLdbsoCeHox-Hhx-44" value="catProperty: string = &quot;I catch some mouses&quot;" style="whiteSpace=wrap;html=1;fillColor=#FFFFFF;" vertex="1" parent="WIyWlLk6GJQsqaUBKTNV-1">
          <mxGeometry x="30" y="3290" width="238" height="54" as="geometry" />
        </mxCell>
        <mxCell id="tgA9xJLdbsoCeHox-Hhx-45" value="" style="ellipse;html=1;shape=endState;fillColor=#000000;strokeColor=#ff0000;" vertex="1" parent="WIyWlLk6GJQsqaUBKTNV-1">
          <mxGeometry x="134" y="3380" width="30" height="30" as="geometry" />
        </mxCell>
        <mxCell id="tgA9xJLdbsoCeHox-Hhx-46" value="" style="rounded=1;whiteSpace=wrap;html=1;" vertex="1" parent="WIyWlLk6GJQsqaUBKTNV-1">
          <mxGeometry x="398" y="3240" width="352" height="170" as="geometry" />
        </mxCell>
        <mxCell id="tgA9xJLdbsoCeHox-Hhx-47" value="" style="edgeStyle=orthogonalEdgeStyle;rounded=0;orthogonalLoop=1;jettySize=auto;html=1;" edge="1" parent="WIyWlLk6GJQsqaUBKTNV-1" source="tgA9xJLdbsoCeHox-Hhx-48">
          <mxGeometry relative="1" as="geometry">
            <mxPoint x="622.5" y="3297" as="targetPoint" />
          </mxGeometry>
        </mxCell>
        <mxCell id="tgA9xJLdbsoCeHox-Hhx-48" value="" style="ellipse;whiteSpace=wrap;html=1;aspect=fixed;fillColor=#000000;" vertex="1" parent="WIyWlLk6GJQsqaUBKTNV-1">
          <mxGeometry x="610.5" y="3247" width="24" height="24" as="geometry" />
        </mxCell>
        <mxCell id="tgA9xJLdbsoCeHox-Hhx-49" style="edgeStyle=orthogonalEdgeStyle;rounded=0;orthogonalLoop=1;jettySize=auto;html=1;entryX=0.5;entryY=0;entryDx=0;entryDy=0;" edge="1" parent="WIyWlLk6GJQsqaUBKTNV-1" target="tgA9xJLdbsoCeHox-Hhx-50">
          <mxGeometry relative="1" as="geometry">
            <mxPoint x="622.5" y="3337" as="sourcePoint" />
          </mxGeometry>
        </mxCell>
        <mxCell id="tgA9xJLdbsoCeHox-Hhx-50" value="" style="ellipse;html=1;shape=endState;fillColor=#000000;strokeColor=#ff0000;" vertex="1" parent="WIyWlLk6GJQsqaUBKTNV-1">
          <mxGeometry x="607.5" y="3373" width="30" height="30" as="geometry" />
        </mxCell>
        <mxCell id="tgA9xJLdbsoCeHox-Hhx-51" value="console.log(&quot;I catch some mouses&quot;)" style="rounded=1;whiteSpace=wrap;html=1;" vertex="1" parent="WIyWlLk6GJQsqaUBKTNV-1">
          <mxGeometry x="507.5" y="3297" width="230" height="40" as="geometry" />
        </mxCell>
        <mxCell id="tgA9xJLdbsoCeHox-Hhx-52" value="&lt;font style=&quot;font-size: 18px&quot;&gt;catActivity&lt;/font&gt;" style="text;html=1;strokeColor=none;fillColor=none;align=center;verticalAlign=middle;whiteSpace=wrap;rounded=0;" vertex="1" parent="WIyWlLk6GJQsqaUBKTNV-1">
          <mxGeometry x="410.5" y="3247" width="99.5" height="20" as="geometry" />
        </mxCell>
        <mxCell id="tgA9xJLdbsoCeHox-Hhx-54" value="" style="edgeStyle=orthogonalEdgeStyle;rounded=0;orthogonalLoop=1;jettySize=auto;html=1;" edge="1" parent="WIyWlLk6GJQsqaUBKTNV-1" source="tgA9xJLdbsoCeHox-Hhx-55" target="tgA9xJLdbsoCeHox-Hhx-57">
          <mxGeometry relative="1" as="geometry" />
        </mxCell>
        <mxCell id="tgA9xJLdbsoCeHox-Hhx-55" value="" style="ellipse;whiteSpace=wrap;html=1;aspect=fixed;fillColor=#000000;" vertex="1" parent="WIyWlLk6GJQsqaUBKTNV-1">
          <mxGeometry x="137" y="3450" width="24" height="24" as="geometry" />
        </mxCell>
        <mxCell id="tgA9xJLdbsoCeHox-Hhx-56" style="edgeStyle=orthogonalEdgeStyle;rounded=0;orthogonalLoop=1;jettySize=auto;html=1;entryX=0.5;entryY=0;entryDx=0;entryDy=0;" edge="1" parent="WIyWlLk6GJQsqaUBKTNV-1" source="tgA9xJLdbsoCeHox-Hhx-57" target="tgA9xJLdbsoCeHox-Hhx-58">
          <mxGeometry relative="1" as="geometry" />
        </mxCell>
        <mxCell id="tgA9xJLdbsoCeHox-Hhx-57" value="dogProperty: string = &quot;I follow you every day&quot;" style="whiteSpace=wrap;html=1;fillColor=#FFFFFF;" vertex="1" parent="WIyWlLk6GJQsqaUBKTNV-1">
          <mxGeometry x="30" y="3500" width="250" height="54" as="geometry" />
        </mxCell>
        <mxCell id="tgA9xJLdbsoCeHox-Hhx-58" value="" style="ellipse;html=1;shape=endState;fillColor=#000000;strokeColor=#ff0000;" vertex="1" parent="WIyWlLk6GJQsqaUBKTNV-1">
          <mxGeometry x="134" y="3590" width="30" height="30" as="geometry" />
        </mxCell>
        <mxCell id="tgA9xJLdbsoCeHox-Hhx-59" value="" style="rounded=1;whiteSpace=wrap;html=1;" vertex="1" parent="WIyWlLk6GJQsqaUBKTNV-1">
          <mxGeometry x="398" y="3450" width="352" height="170" as="geometry" />
        </mxCell>
        <mxCell id="tgA9xJLdbsoCeHox-Hhx-60" value="" style="edgeStyle=orthogonalEdgeStyle;rounded=0;orthogonalLoop=1;jettySize=auto;html=1;" edge="1" parent="WIyWlLk6GJQsqaUBKTNV-1" source="tgA9xJLdbsoCeHox-Hhx-61">
          <mxGeometry relative="1" as="geometry">
            <mxPoint x="622.5" y="3507" as="targetPoint" />
          </mxGeometry>
        </mxCell>
        <mxCell id="tgA9xJLdbsoCeHox-Hhx-61" value="" style="ellipse;whiteSpace=wrap;html=1;aspect=fixed;fillColor=#000000;" vertex="1" parent="WIyWlLk6GJQsqaUBKTNV-1">
          <mxGeometry x="610.5" y="3457" width="24" height="24" as="geometry" />
        </mxCell>
        <mxCell id="tgA9xJLdbsoCeHox-Hhx-62" style="edgeStyle=orthogonalEdgeStyle;rounded=0;orthogonalLoop=1;jettySize=auto;html=1;entryX=0.5;entryY=0;entryDx=0;entryDy=0;" edge="1" parent="WIyWlLk6GJQsqaUBKTNV-1" target="tgA9xJLdbsoCeHox-Hhx-63">
          <mxGeometry relative="1" as="geometry">
            <mxPoint x="622.5" y="3547" as="sourcePoint" />
          </mxGeometry>
        </mxCell>
        <mxCell id="tgA9xJLdbsoCeHox-Hhx-63" value="" style="ellipse;html=1;shape=endState;fillColor=#000000;strokeColor=#ff0000;" vertex="1" parent="WIyWlLk6GJQsqaUBKTNV-1">
          <mxGeometry x="607.5" y="3583" width="30" height="30" as="geometry" />
        </mxCell>
        <mxCell id="tgA9xJLdbsoCeHox-Hhx-64" value="console.log(&quot;I follow you every day&quot;)" style="rounded=1;whiteSpace=wrap;html=1;" vertex="1" parent="WIyWlLk6GJQsqaUBKTNV-1">
          <mxGeometry x="507.5" y="3507" width="230" height="40" as="geometry" />
        </mxCell>
        <mxCell id="tgA9xJLdbsoCeHox-Hhx-65" value="&lt;font style=&quot;font-size: 18px&quot;&gt;dogActivity&lt;/font&gt;" style="text;html=1;strokeColor=none;fillColor=none;align=center;verticalAlign=middle;whiteSpace=wrap;rounded=0;" vertex="1" parent="WIyWlLk6GJQsqaUBKTNV-1">
          <mxGeometry x="410.5" y="3457" width="99.5" height="20" as="geometry" />
        </mxCell>
        <mxCell id="tgA9xJLdbsoCeHox-Hhx-66" value="" style="edgeStyle=orthogonalEdgeStyle;rounded=0;orthogonalLoop=1;jettySize=auto;html=1;" edge="1" parent="WIyWlLk6GJQsqaUBKTNV-1" source="tgA9xJLdbsoCeHox-Hhx-67" target="tgA9xJLdbsoCeHox-Hhx-69">
          <mxGeometry relative="1" as="geometry" />
        </mxCell>
        <mxCell id="tgA9xJLdbsoCeHox-Hhx-67" value="" style="ellipse;whiteSpace=wrap;html=1;aspect=fixed;fillColor=#000000;" vertex="1" parent="WIyWlLk6GJQsqaUBKTNV-1">
          <mxGeometry x="137" y="3660" width="24" height="24" as="geometry" />
        </mxCell>
        <mxCell id="tgA9xJLdbsoCeHox-Hhx-68" style="edgeStyle=orthogonalEdgeStyle;rounded=0;orthogonalLoop=1;jettySize=auto;html=1;entryX=0.5;entryY=0;entryDx=0;entryDy=0;" edge="1" parent="WIyWlLk6GJQsqaUBKTNV-1" source="tgA9xJLdbsoCeHox-Hhx-69" target="tgA9xJLdbsoCeHox-Hhx-70">
          <mxGeometry relative="1" as="geometry" />
        </mxCell>
        <mxCell id="tgA9xJLdbsoCeHox-Hhx-69" value="pigProperty: string = &quot;I eat your leftovers&quot;" style="whiteSpace=wrap;html=1;fillColor=#FFFFFF;" vertex="1" parent="WIyWlLk6GJQsqaUBKTNV-1">
          <mxGeometry x="30" y="3710" width="238" height="54" as="geometry" />
        </mxCell>
        <mxCell id="tgA9xJLdbsoCeHox-Hhx-70" value="" style="ellipse;html=1;shape=endState;fillColor=#000000;strokeColor=#ff0000;" vertex="1" parent="WIyWlLk6GJQsqaUBKTNV-1">
          <mxGeometry x="134" y="3800" width="30" height="30" as="geometry" />
        </mxCell>
        <mxCell id="tgA9xJLdbsoCeHox-Hhx-71" value="" style="rounded=1;whiteSpace=wrap;html=1;" vertex="1" parent="WIyWlLk6GJQsqaUBKTNV-1">
          <mxGeometry x="398" y="3660" width="352" height="170" as="geometry" />
        </mxCell>
        <mxCell id="tgA9xJLdbsoCeHox-Hhx-72" value="" style="edgeStyle=orthogonalEdgeStyle;rounded=0;orthogonalLoop=1;jettySize=auto;html=1;" edge="1" parent="WIyWlLk6GJQsqaUBKTNV-1" source="tgA9xJLdbsoCeHox-Hhx-73">
          <mxGeometry relative="1" as="geometry">
            <mxPoint x="622.5" y="3717" as="targetPoint" />
          </mxGeometry>
        </mxCell>
        <mxCell id="tgA9xJLdbsoCeHox-Hhx-73" value="" style="ellipse;whiteSpace=wrap;html=1;aspect=fixed;fillColor=#000000;" vertex="1" parent="WIyWlLk6GJQsqaUBKTNV-1">
          <mxGeometry x="610.5" y="3667" width="24" height="24" as="geometry" />
        </mxCell>
        <mxCell id="tgA9xJLdbsoCeHox-Hhx-74" style="edgeStyle=orthogonalEdgeStyle;rounded=0;orthogonalLoop=1;jettySize=auto;html=1;entryX=0.5;entryY=0;entryDx=0;entryDy=0;" edge="1" parent="WIyWlLk6GJQsqaUBKTNV-1" target="tgA9xJLdbsoCeHox-Hhx-75">
          <mxGeometry relative="1" as="geometry">
            <mxPoint x="622.5" y="3757" as="sourcePoint" />
          </mxGeometry>
        </mxCell>
        <mxCell id="tgA9xJLdbsoCeHox-Hhx-75" value="" style="ellipse;html=1;shape=endState;fillColor=#000000;strokeColor=#ff0000;" vertex="1" parent="WIyWlLk6GJQsqaUBKTNV-1">
          <mxGeometry x="607.5" y="3793" width="30" height="30" as="geometry" />
        </mxCell>
        <mxCell id="tgA9xJLdbsoCeHox-Hhx-76" value="console.log(&quot;I eat your leftovers&quot;)" style="rounded=1;whiteSpace=wrap;html=1;" vertex="1" parent="WIyWlLk6GJQsqaUBKTNV-1">
          <mxGeometry x="507.5" y="3717" width="230" height="40" as="geometry" />
        </mxCell>
        <mxCell id="tgA9xJLdbsoCeHox-Hhx-77" value="&lt;font style=&quot;font-size: 18px&quot;&gt;pigActivity&lt;/font&gt;" style="text;html=1;strokeColor=none;fillColor=none;align=center;verticalAlign=middle;whiteSpace=wrap;rounded=0;" vertex="1" parent="WIyWlLk6GJQsqaUBKTNV-1">
          <mxGeometry x="410.5" y="3667" width="99.5" height="20" as="geometry" />
        </mxCell>
        <mxCell id="tgA9xJLdbsoCeHox-Hhx-78" value="" style="edgeStyle=orthogonalEdgeStyle;rounded=0;orthogonalLoop=1;jettySize=auto;html=1;" edge="1" parent="WIyWlLk6GJQsqaUBKTNV-1" source="tgA9xJLdbsoCeHox-Hhx-79" target="tgA9xJLdbsoCeHox-Hhx-81">
          <mxGeometry relative="1" as="geometry" />
        </mxCell>
        <mxCell id="tgA9xJLdbsoCeHox-Hhx-79" value="" style="ellipse;whiteSpace=wrap;html=1;aspect=fixed;fillColor=#000000;" vertex="1" parent="WIyWlLk6GJQsqaUBKTNV-1">
          <mxGeometry x="137" y="3860" width="24" height="24" as="geometry" />
        </mxCell>
        <mxCell id="tgA9xJLdbsoCeHox-Hhx-80" style="edgeStyle=orthogonalEdgeStyle;rounded=0;orthogonalLoop=1;jettySize=auto;html=1;entryX=0.5;entryY=0;entryDx=0;entryDy=0;" edge="1" parent="WIyWlLk6GJQsqaUBKTNV-1" source="tgA9xJLdbsoCeHox-Hhx-81" target="tgA9xJLdbsoCeHox-Hhx-82">
          <mxGeometry relative="1" as="geometry" />
        </mxCell>
        <mxCell id="tgA9xJLdbsoCeHox-Hhx-81" value="horseProperty: string = &quot;I have 1PS&quot;" style="whiteSpace=wrap;html=1;fillColor=#FFFFFF;" vertex="1" parent="WIyWlLk6GJQsqaUBKTNV-1">
          <mxGeometry x="30" y="3910" width="238" height="54" as="geometry" />
        </mxCell>
        <mxCell id="tgA9xJLdbsoCeHox-Hhx-82" value="" style="ellipse;html=1;shape=endState;fillColor=#000000;strokeColor=#ff0000;" vertex="1" parent="WIyWlLk6GJQsqaUBKTNV-1">
          <mxGeometry x="134" y="4000" width="30" height="30" as="geometry" />
        </mxCell>
        <mxCell id="tgA9xJLdbsoCeHox-Hhx-83" value="" style="rounded=1;whiteSpace=wrap;html=1;" vertex="1" parent="WIyWlLk6GJQsqaUBKTNV-1">
          <mxGeometry x="398" y="3860" width="352" height="170" as="geometry" />
        </mxCell>
        <mxCell id="tgA9xJLdbsoCeHox-Hhx-84" value="" style="edgeStyle=orthogonalEdgeStyle;rounded=0;orthogonalLoop=1;jettySize=auto;html=1;" edge="1" parent="WIyWlLk6GJQsqaUBKTNV-1" source="tgA9xJLdbsoCeHox-Hhx-85">
          <mxGeometry relative="1" as="geometry">
            <mxPoint x="622.5" y="3917" as="targetPoint" />
          </mxGeometry>
        </mxCell>
        <mxCell id="tgA9xJLdbsoCeHox-Hhx-85" value="" style="ellipse;whiteSpace=wrap;html=1;aspect=fixed;fillColor=#000000;" vertex="1" parent="WIyWlLk6GJQsqaUBKTNV-1">
          <mxGeometry x="610.5" y="3867" width="24" height="24" as="geometry" />
        </mxCell>
        <mxCell id="tgA9xJLdbsoCeHox-Hhx-86" style="edgeStyle=orthogonalEdgeStyle;rounded=0;orthogonalLoop=1;jettySize=auto;html=1;entryX=0.5;entryY=0;entryDx=0;entryDy=0;" edge="1" parent="WIyWlLk6GJQsqaUBKTNV-1" target="tgA9xJLdbsoCeHox-Hhx-87">
          <mxGeometry relative="1" as="geometry">
            <mxPoint x="622.5" y="3957" as="sourcePoint" />
          </mxGeometry>
        </mxCell>
        <mxCell id="tgA9xJLdbsoCeHox-Hhx-87" value="" style="ellipse;html=1;shape=endState;fillColor=#000000;strokeColor=#ff0000;" vertex="1" parent="WIyWlLk6GJQsqaUBKTNV-1">
          <mxGeometry x="607.5" y="3993" width="30" height="30" as="geometry" />
        </mxCell>
        <mxCell id="tgA9xJLdbsoCeHox-Hhx-88" value="console.log(&quot;I have 1PS&quot;)" style="rounded=1;whiteSpace=wrap;html=1;" vertex="1" parent="WIyWlLk6GJQsqaUBKTNV-1">
          <mxGeometry x="507.5" y="3917" width="230" height="40" as="geometry" />
        </mxCell>
        <mxCell id="tgA9xJLdbsoCeHox-Hhx-89" value="&lt;font style=&quot;font-size: 18px&quot;&gt;horseActivity&lt;/font&gt;" style="text;html=1;strokeColor=none;fillColor=none;align=center;verticalAlign=middle;whiteSpace=wrap;rounded=0;" vertex="1" parent="WIyWlLk6GJQsqaUBKTNV-1">
          <mxGeometry x="410.5" y="3867" width="99.5" height="20" as="geometry" />
        </mxCell>
      </root>
    </mxGraphModel>
  </diagram>
</mxfile>
